<svg width="526" height="473" viewBox="0 0 526 473" fill="none" xmlns="http://www.w3.org/2000/svg">
<path fill-rule="evenodd" clip-rule="evenodd" d="M410 326C423.807 326 435 314.807 435 301C435 287.193 423.807 276 410 276C396.193 276 385 287.193 385 301C385 314.807 396.193 326 410 326ZM410 325C423.255 325 434 314.255 434 301C434 287.745 423.255 277 410 277C396.745 277 386 287.745 386 301C386 314.255 396.745 325 410 325Z" stroke="black" stroke-width="10"/>
<path fill-rule="evenodd" clip-rule="evenodd" d="M395 67H393.638L380.514 44.0397C359.784 7.7702 313.54 -4.77011 277.326 16.0571L188.747 67H105C49.7715 67 5 111.772 5 167V418C5 445.614 27.3858 468 55 468H445C472.614 468 495 445.614 495 418V368H506C514.284 368 521 361.284 521 353V249C521 240.716 514.284 234 506 234H495V167C495 111.772 450.228 67 395 67ZM430.857 132L416.099 106.22C415.706 105.534 415.304 104.857 414.894 104.188L394.209 68H395C449.676 68 494 112.324 494 167V172.001C489.368 149.178 469.19 132 445 132H430.857ZM409.016 95.9201L393.058 68H393V67.8993L379.646 44.5359C359.19 8.74683 313.559 -3.62738 277.824 16.924L77.7313 132H220.533L313.618 78.4657C345.897 59.902 386.199 68.0231 409.016 95.9201ZM494 234V182C494 154.938 472.062 133 445 133H55C27.938 133 6 154.938 6 182V418C6 445.062 27.9381 467 55 467H445C472.062 467 494 445.062 494 418V368H412C374.997 368 345 338.003 345 301C345 263.997 374.994 234 411.997 234H494ZM494 367H412C375.549 367 346 337.451 346 301C346 264.549 375.546 235 411.997 235H494V367ZM495 367V235H506C513.732 235 520 241.268 520 249V353C520 360.732 513.732 367 506 367H495ZM75.7255 132L187.008 68H105C50.3238 68 6 112.324 6 167V172.001C10.6324 149.178 30.8101 132 55 132H75.7255ZM314.117 79.3326L222.539 132H429.638L414.033 104.698C393.163 70.7391 348.914 59.3202 314.117 79.3326Z" stroke="black" stroke-width="10"/>
</svg>
